<?xml version="1.0" encoding="utf-8"?>
<!-- Generator: Adobe Illustrator 24.0.3, SVG Export Plug-In . SVG Version: 6.00 Build 0)  -->
<svg version="1.1" id="Layer_1" xmlns="http://www.w3.org/2000/svg" xmlns:xlink="http://www.w3.org/1999/xlink" x="0px" y="0px"
	 viewBox="0 0 988 398" style="enable-background:new 0 0 988 398;" xml:space="preserve">
<style type="text/css">
	.st0{fill:#d55169;}
	.st1{fill:#01797F;}
</style>
<g>
	<path class="st0" d="M247.09,147.9c-7.81,13.12-12.31,28.44-12.31,44.82c0,16.38,4.5,31.7,12.31,44.82l75.47-44.82L247.09,147.9z"
		/>
	<g>
		<g>
			<path class="st0" d="M488.7,130.59c0-23.07,17.47-38.64,40.43-38.64c18.03,0,27.66,10.19,32.59,20.04l-16.57,7.84
				c-2.47-5.94-8.85-10.86-16.02-10.86c-12.21,0-20.83,9.41-20.83,21.61c0,12.21,8.62,21.61,20.83,21.61
				c7.17,0,13.55-4.93,16.02-10.86l16.57,7.84c-4.82,9.63-14.56,20.05-32.59,20.05C506.17,169.23,488.7,153.55,488.7,130.59z"/>
			<path class="st0" d="M569.99,167.88v-74.7h19.26v74.7H569.99z"/>
			<path class="st0" d="M622.85,167.88l-28.11-74.7h21.84l18.37,53.87l18.48-53.87h21.84l-28.22,74.7H622.85z"/>
			<path class="st0" d="M680.74,167.88v-74.7H700v74.7H680.74z"/>
			<path class="st0" d="M709.63,130.59c0-23.07,17.47-38.64,40.43-38.64c18.03,0,27.66,10.19,32.59,20.04l-16.57,7.84
				c-2.47-5.94-8.85-10.86-16.02-10.86c-12.21,0-20.83,9.41-20.83,21.61c0,12.21,8.62,21.61,20.83,21.61
				c7.17,0,13.55-4.93,16.02-10.86l16.57,7.84c-4.82,9.63-14.56,20.05-32.59,20.05C727.1,169.23,709.63,153.55,709.63,130.59z"/>
		</g>
	</g>
	<g>
		<g>
			<path class="st0" d="M492.5,275.72v-74.7h54.76v16.8h-35.5v11.65h34.72v16.8h-34.72v12.65h35.5v16.8H492.5z"/>
			<path class="st0" d="M558.46,245.48v-44.46h19.6v43.79c0,8.85,5.26,15.23,15.79,15.23c10.3,0,15.68-6.38,15.68-15.23v-43.79
				h19.48v44.35c0,18.59-11.31,31.69-35.17,31.69C569.77,277.06,558.46,263.85,558.46,245.48z"/>
			<path class="st0" d="M684.11,275.72l-12.54-25.09h-9.86v25.09h-19.26v-74.7h37.4c16.57,0,25.98,10.98,25.98,24.86
				c0,12.99-7.95,19.94-14.89,22.4l15.23,27.44H684.11z M686.23,225.77c0-5.04-4.26-7.95-9.29-7.95h-15.23v16.01h15.23
				C681.97,233.83,686.23,231.03,686.23,225.77z"/>
			<path class="st0" d="M712.65,238.43c0-22.73,17.14-38.64,39.98-38.64c22.85,0,39.87,15.9,39.87,38.64
				c0,22.73-17.02,38.64-39.87,38.64C729.79,277.06,712.65,261.16,712.65,238.43z M772.9,238.43c0-12.21-7.95-21.61-20.27-21.61
				c-12.43,0-20.38,9.41-20.38,21.61c0,12.09,7.95,21.61,20.38,21.61C764.95,260.04,772.9,250.52,772.9,238.43z"/>
			<path class="st0" d="M802.24,275.72v-74.7h37.4c16.8,0,25.98,11.31,25.98,24.86c0,13.44-9.18,24.75-25.98,24.75H821.5v25.09
				H802.24z M846.03,225.88c0-5.15-3.81-8.06-8.96-8.06H821.5v16.01h15.57C842.22,233.83,846.03,230.92,846.03,225.88z"/>
			<path class="st0" d="M874.24,275.72v-74.7H929v16.8h-35.5v11.65h34.72v16.8H893.5v12.65H929v16.8H874.24z"/>
		</g>
	</g>
	<polygon class="st0" points="183.96,141.49 85.01,82.73 85.01,200.25 	"/>
	<polygon class="st1" points="197.31,226.48 147.84,197.11 147.84,255.86 	"/>
	<path class="st0" d="M398.03,237.53c-15.3,25.72-43.37,42.96-75.47,42.96c-32.1,0-60.16-17.24-75.47-42.96l-63.13,37.49
		c28.11,47.23,79.66,78.88,138.6,78.88c58.95,0,110.5-31.65,138.6-78.88L398.03,237.53z"/>
	<path class="st1" d="M247.09,147.9c15.31-25.72,43.37-42.96,75.47-42.96c32.09,0,60.14,17.23,75.45,42.93l63.13-37.49
		c-28.11-47.21-79.65-78.85-138.59-78.85c-58.95,0-110.5,31.65-138.6,78.88L247.09,147.9z"/>
</g>
</svg>
