<?xml version="1.0" encoding="utf-8"?>
<!-- Generator: Adobe Illustrator 24.1.0, SVG Export Plug-In . SVG Version: 6.00 Build 0)  -->
<svg version="1.1" id="Layer_1" xmlns="http://www.w3.org/2000/svg" xmlns:xlink="http://www.w3.org/1999/xlink" x="0px" y="0px"
	 viewBox="0 0 720 360" style="enable-background:new 0 0 720 360;" xml:space="preserve">
<style type="text/css">
	.st0{fill:#F5F5F5;}
	.st1{clip-path:url(#SVGID_2_);}
	.st2{fill:url(#SVGID_3_);}
</style>
<rect class="st0" width="720" height="360"/>
<g>
	<g>
		<g>
			<defs>
				<rect id="SVGID_1_" x="-1" y="-0.2" width="721" height="360.5"/>
			</defs>
			<clipPath id="SVGID_2_">
				<use xlink:href="#SVGID_1_"  style="overflow:visible;"/>
			</clipPath>
			<g class="st1">
				
					<linearGradient id="SVGID_3_" gradientUnits="userSpaceOnUse" x1="906.8708" y1="318.4507" x2="555.0917" y2="318.4507" gradientTransform="matrix(1 0 0 -1 0 498)">
					<stop  offset="0" style="stop-color:#01797F"/>
					<stop  offset="9.722270e-02" style="stop-color:#0A777E"/>
					<stop  offset="0.2532" style="stop-color:#21737C"/>
					<stop  offset="0.4486" style="stop-color:#476C78"/>
					<stop  offset="0.6755" style="stop-color:#7D6272"/>
					<stop  offset="0.9262" style="stop-color:#C0556B"/>
					<stop  offset="1" style="stop-color:#D55169"/>
				</linearGradient>
				<path class="st2" d="M722.1,451.6l0-182.6l-0.6-0.3l-146-89.2L722,90l0-182.5l-1.5,0.9L573.7-1.9L426.2-92.1L277.8-1.4l0,179
					L130.4,87.6l0,182.4l0.5,0.2L426.2,451l0.5-0.3l146.9-89.8L722.1,451.6z M575.6,359.6L720,271.3l0,176.6L575.6,359.6z
					 M719.1,89.3l-144.5,88.3l0-176.5L719.1,89.3z M280.7-0.9l144.5-88.3l0,176.6L280.7-0.9z M424.3,89.4l-144.5,88.3l0-176.6
					L424.3,89.4z M133.6,269.4l144.2-88.1l0,176.4L133.6,269.4z M571.7,179.4l-144.5,88.3l0-176.6L571.7,179.4z M425.2,91.2l0,176.5
					l-144.5-88.3L425.2,91.2L425.2,91.2z M279.8,357.8l0-176.6l144.5,88.3L279.8,357.8L279.8,357.8z M425.2,271.3l0,176.6
					l-144.3-88.4L425.2,271.3z M572.6,1.1l0,176.5L428.2,89.4L572.6,1.1z M572.6,181.2l0,176.6l-144.5-88.3L572.6,181.2z
					 M571.7,359.6L427.2,448l0-176.6L571.7,359.6z M132.4,267.7l0-176.6l144.5,88.3L132.4,267.7L132.4,267.7z M571.8-0.8L427.2,87.6
					l0-176.7L571.8-0.8z M720.1-89l0,176.5L575.6-0.8L720.1-89z M719.1,269.5l-144.5,88.3l0-176.6L719.1,269.5z"/>
			</g>
		</g>
	</g>
</g>
</svg>
