<?xml version="1.0" encoding="utf-8"?>
<!-- Generator: Adobe Illustrator 24.1.0, SVG Export Plug-In . SVG Version: 6.00 Build 0)  -->
<svg version="1.1" id="Layer_1" xmlns="http://www.w3.org/2000/svg" xmlns:xlink="http://www.w3.org/1999/xlink" x="0px" y="0px"
	 viewBox="0 0 720 360" style="enable-background:new 0 0 720 360;" xml:space="preserve">
<style type="text/css">
	.st0{fill:#F5F5F5;}
	.st1{clip-path:url(#SVGID_2_);}
	.st2{fill:url(#SVGID_3_);}
</style>
<rect x="-1" y="-0.2" class="st0" width="721" height="360.5"/>
<g>
	<g>
		<g>
			<defs>
				<rect id="SVGID_1_" x="-1" y="-0.2" width="721" height="360.5"/>
			</defs>
			<clipPath id="SVGID_2_">
				<use xlink:href="#SVGID_1_"  style="overflow:visible;"/>
			</clipPath>
			<g class="st1">
				
					<linearGradient id="SVGID_3_" gradientUnits="userSpaceOnUse" x1="181.9402" y1="-20.3282" x2="735.2235" y2="66.3967" gradientTransform="matrix(1 0 0 1 0 138)">
					<stop  offset="0" style="stop-color:#01797F"/>
					<stop  offset="9.722270e-02" style="stop-color:#0A777E"/>
					<stop  offset="0.2532" style="stop-color:#21737C"/>
					<stop  offset="0.4486" style="stop-color:#476C78"/>
					<stop  offset="0.6755" style="stop-color:#7D6272"/>
					<stop  offset="0.9262" style="stop-color:#C0556B"/>
					<stop  offset="1" style="stop-color:#D55169"/>
				</linearGradient>
				<path class="st2" d="M573.5-2L426.6-91.8l-0.5-0.3L130.8,88.8l-0.5,0.2l0,182.4l147.5-90.1l0,179L426.2,451l147.5-90.1
					l146.9,89.7l1.5,0.9l0-182.5l-146.5-89.6l146-89.2l0.5-0.3l0-182.6L573.5-2z M720.1-89.1l0,176.6L575.6-0.8L720.1-89.1z
					 M574.7,357.8l0-176.5l144.5,88.3L574.7,357.8z M425.2,271.4l0,176.5l-144.5-88.3L425.2,271.4z M279.8,357.8l0-176.6l144.5,88.3
					L279.8,357.8z M277.8,1.2l0,176.4L133.6,89.5L277.8,1.2z M427.2,267.8l0-176.6l144.5,88.3L427.2,267.8z M425.2,91.2l0,176.5
					l-144.5-88.2L425.2,91.2L425.2,91.2z M279.8,177.7l0-176.6l144.5,88.3L279.8,177.7L279.8,177.7z M280.9-0.7l144.3-88.4l0,176.6
					L280.9-0.7z M428.2,269.5l144.4-88.2l0,176.5L428.2,269.5z M428.1,89.4L572.6,1.1l0,176.6L428.1,89.4z M427.2,87.6l0-176.6
					L571.7-0.8L427.2,87.6z M132.4,267.8l0-176.6l144.5,88.3L132.4,267.8L132.4,267.8z M427.2,448.1l0-176.7l144.6,88.3L427.2,448.1
					z M575.6,359.6L720,271.3v176.5L575.6,359.6z M574.6,177.7l0-176.6l144.5,88.3L574.6,177.7z"/>
			</g>
		</g>
	</g>
</g>
</svg>
